<svg id="logo" xmlns="http://www.w3.org/2000/svg" viewBox="0 0 559.8 802.72"><defs><style>.cls-1,.cls-2,.cls-3{fill:#ff4136;}.cls-2{font-size:61.67px;}.cls-2,.cls-3{font-family:ElyRounded-Heavy, Ely Rounded;}.cls-3{font-size:56.31px;}</style></defs><title>logo-with-name</title><path id="cloud" class="cls-1" d="M377,177.37a24.37,24.37,0,0,0,.1-2.7,27.31,27.31,0,0,0-27.4-27.4c-1,0-2,.1-2.9.1a27.39,27.39,0,0,0-47.6-2.4,31.08,31.08,0,0,0-4.3-.3,27.64,27.64,0,0,0-23.1,12.6,25.55,25.55,0,0,0-6.9-1,23.44,23.44,0,0,0-23.3,21.1Z" transform="translate(0 133.05)"/><path class="cls-1" d="M555.8,243.47a42.14,42.14,0,0,0-42.2-42.2c-1.5,0-3,.1-4.5.2a42.38,42.38,0,0,0-12.8-15.16,223.61,223.61,0,0,0-361-64.28,227.33,227.33,0,0,0-16.57,18.51A63.08,63.08,0,0,0,71.44,252.76q-.7,5.88-1.1,11.81A7.54,7.54,0,0,0,67,267.62l-12.3,21.3a7.5,7.5,0,0,0,13,7.5l2.43-4.22A223.49,223.49,0,0,0,451.34,438.1a222,222,0,0,0,65.46-158,227.35,227.35,0,0,0-2.32-32.4H555.6C555.7,246.37,555.8,244.77,555.8,243.47ZM462.84,373,371.1,280.67c-14.2,15.5-100.7,91.1-103.5,93.6,0-.1,30.6-32.2,30.6-32.2l-17-16c-.1,0-7.6-7.5-7.6-7.5-1.9,1.52-48.9,38.72-122.56,92.3A192.61,192.61,0,0,1,100,280.07q0-7.41.55-14.66a64.58,64.58,0,0,0,9.8.76,63.1,63.1,0,0,0,37.8-113.63,193.16,193.16,0,0,1,310.66,27.57,42.77,42.77,0,0,0-23,17.56,48.72,48.72,0,0,0-6.6-.4,42.48,42.48,0,0,0-35.6,19.4,36.27,36.27,0,0,0-46.4,31H483.92A193.2,193.2,0,0,1,462.84,373Z" transform="translate(0 133.05)"/><path class="cls-1" d="M110.9,134.47a7.5,7.5,0,0,1-7.5-7.5V102a7.5,7.5,0,0,1,15,0v25A7.5,7.5,0,0,1,110.9,134.47Z" transform="translate(0 133.05)"/><path class="cls-1" d="M73.11,144.27a7.52,7.52,0,0,1-6.42-3.6l-13.4-22a7.5,7.5,0,0,1,12.82-7.8l13.4,22a7.51,7.51,0,0,1-6.4,11.4Z" transform="translate(0 133.05)"/><path class="cls-1" d="M44.49,172.37a7.44,7.44,0,0,1-3.68-1L18,158.49a7.5,7.5,0,1,1,7.38-13.05l22.8,12.9a7.5,7.5,0,0,1-3.7,14Z" transform="translate(0 133.05)"/><path class="cls-1" d="M34,212.07h-.14l-26.5-.5a7.5,7.5,0,1,1,.28-15l26.5.5a7.5,7.5,0,0,1-.14,15Z" transform="translate(0 133.05)"/><path class="cls-1" d="M21.81,264a7.5,7.5,0,0,1-3.76-14l23.7-13.7a7.5,7.5,0,0,1,7.5,13L25.55,263A7.48,7.48,0,0,1,21.81,264Z" transform="translate(0 133.05)"/><path class="cls-1" d="M112.9,313.87a7.5,7.5,0,0,1-7.5-7.5V281a7.5,7.5,0,0,1,15,0v25.4A7.5,7.5,0,0,1,112.9,313.87Z" transform="translate(0 133.05)"/><path class="cls-1" d="M163.91,299.37a7.48,7.48,0,0,1-6.47-3.7l-13-22.1A7.5,7.5,0,1,1,157.36,266l13,22.1a7.51,7.51,0,0,1-6.45,11.31Z" transform="translate(0 133.05)"/><path class="cls-1" d="M198.59,260.87a7.44,7.44,0,0,1-3.76-1l-20.61-12a7.5,7.5,0,0,1,7.55-13l20.6,12a7.5,7.5,0,0,1-3.78,14Z" transform="translate(0 133.05)"/><path class="cls-1" d="M187.3,210.57a7.5,7.5,0,0,1-.18-15l24.7-.6a7.5,7.5,0,1,1,.36,15l-24.7.6Z" transform="translate(0 133.05)"/><path class="cls-1" d="M177,173.27A7.5,7.5,0,0,1,173,159.45l20.6-13.2a7.5,7.5,0,0,1,8.1,12.63l-20.6,13.2A7.53,7.53,0,0,1,177,173.27Z" transform="translate(0 133.05)"/><text class="cls-2" transform="matrix(0.78, -0.63, 0.63, 0.78, 128.57, 237.88)">n</text><text class="cls-2" transform="matrix(0.86, -0.52, 0.52, 0.86, 154.83, 216.6)">e</text><text class="cls-2" transform="translate(181.52 200.26) rotate(-23.61)">p</text><text class="cls-2" transform="translate(211.3 187.18) rotate(-15.96)">a</text><text class="cls-2" transform="translate(241.58 178.83) rotate(-10.14)">l</text><text class="cls-2" transform="matrix(0.99, -0.1, 0.1, 0.99, 259.28, 175.64)">-</text><text class="cls-2" transform="translate(276.51 173.46) rotate(-0.18)">g</text><text class="cls-2" transform="translate(306.41 173.12) rotate(7.25)">u</text><text class="cls-2" transform="translate(340.15 177.82) rotate(13.26)">i</text><text class="cls-2" transform="translate(356.36 181.15) rotate(19.12)">d</text><text class="cls-2" transform="translate(387.11 191.75) rotate(26.77)">e</text><text class="cls-2" transform="matrix(0.85, 0.53, -0.53, 0.85, 413.37, 205.21)">.</text><text class="cls-2" transform="translate(428.26 214.34) rotate(37.1)">r</text><text class="cls-2" transform="translate(446.7 227.76) rotate(43.71)">u</text><text class="cls-3" transform="matrix(0.65, 0.76, -0.76, 0.65, 79.32, 573.56)">В</text><text class="cls-3" transform="translate(104.91 602.89) rotate(41.74)">а</text><text class="cls-3" transform="matrix(0.84, 0.54, -0.54, 0.84, 129.96, 625.61)">ш</text><text class="cls-3" transform="translate(170.82 650.67) rotate(25.5)"> </text><text class="cls-3" transform="translate(187.85 658.87) rotate(20.6)">г</text><text class="cls-3" transform="matrix(0.97, 0.24, -0.24, 0.97, 212.45, 668.26)">и</text><text class="cls-3" transform="matrix(0.99, 0.1, -0.1, 0.99, 246.83, 676.87)">д</text><text class="cls-3" transform="translate(287.18 680.36) rotate(-0.43)"> </text><text class="cls-3" transform="translate(306.34 680.41) rotate(-5.92)">в</text><text class="cls-3" transform="translate(338.07 676.7) rotate(-11.43)"> </text><text class="cls-3" transform="translate(357.48 673.29) rotate(-18.14)">Н</text><text class="cls-3" transform="matrix(0.9, -0.44, 0.44, 0.9, 397.95, 659.42)">е</text><text class="cls-3" transform="translate(427.55 644.61) rotate(-33.68)">п</text><text class="cls-3" transform="translate(456.87 624.74) rotate(-40.93)">а</text><text class="cls-3" transform="translate(481.41 603.37) rotate(-48.25)">л</text><text class="cls-3" transform="matrix(0.56, -0.83, 0.83, 0.56, 505.19, 576.27)">е</text></svg>